<svg width="12" height="337" viewBox="0 0 12 337" fill="none" xmlns="http://www.w3.org/2000/svg">
<line x1="5.75" y1="1" x2="5.74999" y2="332" stroke="#E91717" stroke-width="1.5"/>
<path d="M10.4154 5.5C10.4154 8.11284 8.26233 10.25 5.58271 10.25C2.90308 10.25 0.75 8.11284 0.75 5.5C0.75 2.88716 2.90308 0.75 5.58271 0.75C8.26233 0.75 10.4154 2.88716 10.4154 5.5Z" fill="#E91717" stroke="#E91717" stroke-width="1.5"/>
<path d="M10.4154 113.5C10.4154 116.113 8.26233 118.25 5.58271 118.25C2.90308 118.25 0.75 116.113 0.75 113.5C0.75 110.887 2.90308 108.75 5.58271 108.75C8.26233 108.75 10.4154 110.887 10.4154 113.5Z" fill="#E91717" stroke="#E91717" stroke-width="1.5"/>
<path d="M10.4154 205.5C10.4154 208.113 8.26233 210.25 5.58271 210.25C2.90308 210.25 0.75 208.113 0.75 205.5C0.75 202.887 2.90308 200.75 5.58271 200.75C8.26233 200.75 10.4154 202.887 10.4154 205.5Z" fill="#E91717" stroke="#E91717" stroke-width="1.5"/>
<path d="M10.4154 331.5C10.4154 334.113 8.26233 336.25 5.58271 336.25C2.90308 336.25 0.75 334.113 0.75 331.5C0.75 328.887 2.90308 326.75 5.58271 326.75C8.26233 326.75 10.4154 328.887 10.4154 331.5Z" fill="#E91717" stroke="#E91717" stroke-width="1.5"/>
</svg>
