<svg width="13" height="285" viewBox="0 0 13 285" fill="none" xmlns="http://www.w3.org/2000/svg">
<line x1="6.6673" y1="1" x2="6.66728" y2="280" stroke="#E91717" stroke-width="1.5"/>
<path d="M11.3327 5.5C11.3327 8.11284 9.17963 10.25 6.5 10.25C3.82038 10.25 1.6673 8.11284 1.6673 5.5C1.6673 2.88716 3.82038 0.75 6.5 0.75C9.17963 0.75 11.3327 2.88716 11.3327 5.5Z" fill="#E91717" stroke="#E91717" stroke-width="1.5"/>
<path d="M11.3327 113.5C11.3327 116.113 9.17963 118.25 6.5 118.25C3.82038 118.25 1.6673 116.113 1.6673 113.5C1.6673 110.887 3.82038 108.75 6.5 108.75C9.17963 108.75 11.3327 110.887 11.3327 113.5Z" fill="#E91717" stroke="#E91717" stroke-width="1.5"/>
<path d="M11.3327 205.5C11.3327 208.113 9.17963 210.25 6.5 210.25C3.82038 210.25 1.6673 208.113 1.6673 205.5C1.6673 202.887 3.82038 200.75 6.5 200.75C9.17963 200.75 11.3327 202.887 11.3327 205.5Z" fill="#E91717" stroke="#E91717" stroke-width="1.5"/>
<path d="M11.3327 279.5C11.3327 282.113 9.17963 284.25 6.5 284.25C3.82038 284.25 1.6673 282.113 1.6673 279.5C1.6673 276.887 3.82038 274.75 6.5 274.75C9.17963 274.75 11.3327 276.887 11.3327 279.5Z" fill="#E91717" stroke="#E91717" stroke-width="1.5"/>
</svg>
