<svg xmlns="http://www.w3.org/2000/svg" aria-hidden="true" style="position:absolute;width:0;height:0;overflow:hidden">
  <defs>
    <symbol id="icon-check-markup-item" viewBox="0 0 32 32">
      <path fill="#e91717" d="m13 24-9-9 1.414-1.414L13 21.171 26.586 7.586 28 9 13 24z" style="fill:var(--color1, #e91717)"/>
    </symbol>
    <symbol id="icon-facebook-icon" viewBox="0 0 32 32">
      <path fill="#1877f2" d="M32 16c0-8.836-7.163-16-16-16S0 7.163 0 16c0 7.986 5.851 14.605 13.5 15.806V20.625H9.438V16H13.5v-3.525c0-4.01 2.389-6.225 6.043-6.225 1.751 0 3.582.313 3.582.313V10.5h-2.017c-1.988 0-2.608 1.233-2.608 2.499V16h4.437l-.709 4.625H18.5v11.181C26.149 30.606 32 23.987 32 16z" style="fill:var(--color2, #1877f2)"/>
      <path fill="#fff" d="M22.228 20.625 22.937 16H18.5v-3.001c0-1.265.62-2.499 2.608-2.499h2.017V6.562s-1.831-.313-3.582-.313c-3.655 0-6.043 2.215-6.043 6.225v3.525H9.438v4.625H13.5v11.181c.827.13 1.663.195 2.5.194s1.673-.065 2.5-.194V20.624h3.728z" style="fill:var(--color3, #fff)"/>
    </symbol>
    <symbol id="icon-faq-minus" viewBox="0 0 32 32">
      <path fill="#e91717" d="M24 17.331H8a1.333 1.333 0 1 1 0-2.667h16a1.334 1.334 0 0 1 0 2.667z" style="fill:var(--color1, #e91717)"/>
    </symbol>
    <symbol id="icon-faq-plus" viewBox="0 0 30 32">
      <path fill="none" stroke="#e91717" stroke-linecap="round" stroke-linejoin="round" stroke-width="2.667" d="M15.111 2.667v26.667M28.444 16H1.777" style="stroke:var(--color1, #e91717)"/>
    </symbol>
    <symbol id="icon-gmail-icon" viewBox="0 0 43 32">
      <path fill="#4285f4" d="M9.842 31.842v-16.4l-5.187-4.653L.004 8.207v20.74c0 1.601 1.323 2.894 2.951 2.894h6.886z" style="fill:var(--color4, #4285f4)"/>
      <path fill="#34a853" d="M33.452 31.843h6.886c1.633 0 2.951-1.298 2.951-2.894V8.209l-5.268 2.957-4.57 4.277v16.4z" style="fill:var(--color5, #34a853)"/>
      <path fill="#ea4335" d="m9.842 15.443-.706-6.408.706-6.133 11.805 8.682 11.805-8.682.789 5.802-.789 6.739-11.805 8.682-11.805-8.682z" style="fill:var(--color6, #ea4335)"/>
      <path fill="#fbbc04" d="M33.452 2.902v12.541l9.838-7.235V4.349c0-3.579-4.166-5.619-7.083-3.473l-2.755 2.026z" style="fill:var(--color7, #fbbc04)"/>
      <path fill="#c5221f" d="m.005 8.208 9.838 7.235V2.902L7.088.876C4.166-1.271.005.77.005 4.349v3.859z" style="fill:var(--color8, #c5221f)"/>
    </symbol>
    <symbol id="icon-header-downup-arrow" viewBox="0 0 52 32">
      <path fill="#e91717" d="M51.892.941V16c0 .25-.101.489-.281.665a.974.974 0 0 1-1.36 0A.933.933 0 0 1 49.97 16V3.214L28.548 24.195a.988.988 0 0 1-1.048.204.958.958 0 0 1-.312-.204l-8.93-8.746L1.641 31.724c-.18.177-.425.276-.68.276s-.5-.099-.68-.276a.93.93 0 0 1 0-1.332l17.297-16.941a.988.988 0 0 1 1.048-.204.958.958 0 0 1 .312.204l8.93 8.746L48.61 1.882H35.555c-.255 0-.499-.099-.68-.276a.929.929 0 0 1 0-1.33.974.974 0 0 1 .68-.276H50.93c.255 0 .499.099.68.276s.281.416.281.665z" style="fill:var(--color1, #e91717)"/>
    </symbol>
    <symbol id="icon-header-vector-left" viewBox="0 0 6 32">
      <path fill="none" stroke="#e91717" stroke-linecap="round" stroke-width="3.048" d="M4.571 2.286 3.236 3.925a7.615 7.615 0 0 0-1.712 4.813V23.33c0 1.808.643 3.558 1.815 4.935l1.233 1.45" style="stroke:var(--color1, #e91717)"/>
    </symbol>
    <symbol id="icon-header-vector-right" viewBox="0 0 6 32">
      <path fill="none" stroke="#e91717" stroke-linecap="round" stroke-width="3.048" d="m1.524 2.286 1.335 1.639a7.616 7.616 0 0 1 1.713 4.813V23.33a7.619 7.619 0 0 1-1.814 4.935l-1.233 1.45" style="stroke:var(--color1, #e91717)"/>
    </symbol>
    <symbol id="icon-red-dot-list" viewBox="0 0 32 32">
      <path fill="#e91717" d="M29.333 16c0 7.364-5.97 13.333-13.333 13.333S2.667 23.363 2.667 16C2.667 8.636 8.637 2.667 16 2.667S29.333 8.637 29.333 16z" style="fill:var(--color1, #e91717)"/>
    </symbol>
    <symbol id="icon-sect-five-vector-left" viewBox="0 0 7 32">
      <path fill="none" stroke="#e91717" stroke-linecap="round" stroke-width="1.6" d="M6 1.2 4.051 2.839A7.998 7.998 0 0 0 1.2 8.962v14.143c0 2.42 1.096 4.71 2.98 6.229L6 30.801" style="stroke:var(--color1, #e91717)"/>
    </symbol>
    <symbol id="icon-sect-five-vector-right" viewBox="0 0 7 32">
      <path fill="none" stroke="#e91717" stroke-linecap="round" stroke-width="1.6" d="m1.2 1.2 1.949 1.639A7.998 7.998 0 0 1 6 8.962v14.143c0 2.42-1.096 4.71-2.98 6.229L1.2 30.801" style="stroke:var(--color1, #e91717)"/>
    </symbol>
    <symbol id="icon-sect-one-vector-left" viewBox="0 0 9 32">
      <path fill="none" stroke="#e91717" stroke-linecap="round" stroke-width="2.462" d="m6.769 1.231-.409.335a12.308 12.308 0 0 0-4.514 9.526v9.828c0 3.781 1.738 7.352 4.713 9.685l.21.164" style="stroke:var(--color1, #e91717)"/>
    </symbol>
    <symbol id="icon-sect-one-vector-right" viewBox="0 0 9 32">
      <path fill="none" stroke="#e91717" stroke-linecap="round" stroke-width="2.462" d="m1.846 1.231.409.335a12.308 12.308 0 0 1 4.514 9.526v9.828c0 3.781-1.738 7.352-4.713 9.685l-.21.164" style="stroke:var(--color1, #e91717)"/>
    </symbol>
    <symbol id="icon-viber-icon" viewBox="0 0 33 32">
      <path fill="#fff" d="M28.38 3.843c-.778-.715-3.924-2.99-10.93-3.021 0 0-8.262-.496-12.289 3.184C2.919 6.24 2.13 9.508 2.047 13.561s-.191 11.646 7.158 13.706h.007l-.005 3.142s-.047 1.272.794 1.532c1.017.315 1.614-.652 2.585-1.694a83.828 83.828 0 0 0 1.824-2.055c5.026.421 8.891-.542 9.33-.684 1.015-.328 6.757-1.06 7.691-8.654.964-7.827-.466-12.778-3.051-15.009z" style="fill:var(--color3, #fff)"/>
      <path fill="#7360f2" d="M26.746 5.424c-.658-.596-3.498-2.373-9.425-2.399 0 0-7.018-.459-10.424 2.614-1.896 1.865-2.535 4.638-2.605 8.022s-.433 9.849 5.781 11.569l-.027 5.221c0 .295.047.497.216.538.122.03.304-.033.459-.187.994-.994 4.175-4.817 4.175-4.817 4.268.278 7.664-.562 8.029-.681.861-.276 5.518-.674 6.307-7.016.814-6.537-.299-11-2.486-12.865z" style="fill:var(--color9, #7360f2)"/>
      <path fill="#fff" d="M17.571 10.924a.396.396 0 0 1 .416-.374c.818.043 1.498.289 1.982.788.483.497.719 1.191.761 2.025a.396.396 0 0 1-.791.039c-.036-.714-.232-1.2-.539-1.516-.305-.314-.77-.513-1.454-.548a.395.395 0 0 1-.375-.415z" style="fill:var(--color3, #fff)"/>
      <path fill="#fff" d="M16.971 8.798a.396.396 0 0 1 .424-.365c1.664.121 3.003.688 3.979 1.748.965 1.05 1.424 2.357 1.39 3.889a.396.396 0 0 1-.793-.017c.029-1.351-.37-2.455-1.183-3.339-.811-.881-1.943-1.384-3.452-1.494a.395.395 0 0 1-.366-.422z" style="fill:var(--color3, #fff)"/>
      <path fill="#fff" d="M16.271 6.776a.396.396 0 0 1 .399-.392c2.299.016 4.243.779 5.804 2.294 1.574 1.528 2.352 3.608 2.372 6.192a.395.395 0 0 1-.792.006c-.019-2.421-.742-4.282-2.132-5.633-1.404-1.363-3.147-2.055-5.256-2.07a.395.395 0 0 1-.393-.397zM18.045 18.67s.557.047.857-.321l.585-.733c.282-.363.963-.595 1.629-.225.5.284.984.592 1.453.924.442.324 1.348 1.077 1.351 1.077.431.363.531.896.237 1.457l-.002.012a6.079 6.079 0 0 1-1.217 1.493c-.006.003-.006.006-.011.008-.419.349-.831.547-1.236.595a.838.838 0 0 1-.18.011 1.64 1.64 0 0 1-.525-.081l-.013-.019c-.623-.175-1.664-.613-3.397-1.566a20.25 20.25 0 0 1-2.854-1.878 15.017 15.017 0 0 1-1.284-1.134l-.043-.043-.043-.043-.043-.043-.043-.043a14.681 14.681 0 0 1-1.138-1.279 20.206 20.206 0 0 1-1.885-2.842c-.956-1.727-1.396-2.762-1.572-3.384l-.019-.013a1.632 1.632 0 0 1-.08-.523c-.003-.06 0-.12.011-.18.05-.402.25-.813.598-1.232.003-.005.006-.005.008-.011.432-.481.937-.89 1.498-1.212l.012-.003c.564-.293 1.099-.193 1.463.234.003.003.757.905 1.081 1.346.333.467.643.951.928 1.449.371.663.139 1.343-.226 1.623l-.736.582c-.371.299-.322.854-.322.854s1.089 4.107 5.16 5.143z" style="fill:var(--color3, #fff)"/>
    </symbol>
    <symbol id="icon-youtube-icon" viewBox="0 0 47 32">
      <path fill="red" d="M45.462 4.991c-.262-.965-.773-1.844-1.483-2.551S42.386 1.224 41.417.963C37.87 0 23.595 0 23.595 0S9.32.029 5.773.992c-.969.261-1.852.77-2.562 1.477S1.99 4.055 1.728 5.02C.655 11.295.239 20.857 1.757 26.881c.262.965.774 1.844 1.483 2.551s1.593 1.216 2.562 1.477c3.547.963 17.822.963 17.822.963s14.275 0 17.822-.963c.969-.261 1.852-.77 2.562-1.477s1.221-1.586 1.483-2.551c1.131-6.284 1.48-15.84-.029-21.891z" style="fill:var(--color10, #f00)"/>
      <path fill="#fff" d="m19.052 22.766 11.842-6.83-11.842-6.83v13.66z" style="fill:var(--color3, #fff)"/>
    </symbol>
  </defs>
</svg>
