<svg width="31" height="30" viewBox="0 0 31 30" fill="none" xmlns="http://www.w3.org/2000/svg">
<path d="M15.5 29.25C23.37 29.25 29.75 22.8701 29.75 15C29.75 7.12994 23.37 0.75 15.5 0.75C7.62994 0.75 1.25 7.12994 1.25 15C1.25 22.8701 7.62994 29.25 15.5 29.25Z" fill="url(#paint0_linear_0_316)"/>
<path d="M10.7835 16.1416L12.423 20.5884L19.6996 10.4819L10.7835 16.1416Z" fill="#C2DAEC"/>
<path d="M12.6026 17.1306L12.4453 20.6342L16.2859 17.3776L12.6026 17.1306Z" fill="#9FCDE2"/>
<path d="M21.4779 8.77534L7.13612 14.2249C6.73094 14.3788 6.74166 14.9557 7.15229 15.0945L10.8508 16.3443L19.2728 10.9094L12.6026 17.1303L17.7952 21.0709C18.3354 21.4808 19.1187 21.2052 19.2831 20.5474L22.0902 9.31952C22.1807 8.95723 21.8268 8.64272 21.4779 8.77534Z" fill="#ECF8FD"/>
<defs>
<linearGradient id="paint0_linear_0_316" x1="5.42378" y1="4.92363" x2="25.5763" y2="25.0762" gradientUnits="userSpaceOnUse">
<stop stop-color="#00AFE5"/>
<stop offset="1" stop-color="#0094D4"/>
</linearGradient>
</defs>
</svg>
