<svg width="23" height="17" viewBox="0 0 23 17" fill="none" xmlns="http://www.w3.org/2000/svg">
<g clip-path="url(#clip0_0_347)">
<path d="M5.22843 16.9162V8.20394L2.47297 5.73207L0.00209045 4.36035V15.3787C0.00209045 16.2294 0.70499 16.9162 1.57003 16.9162H5.22843Z" fill="#4285F4"/>
<path d="M17.7716 16.9164H21.43C22.2976 16.9164 22.9979 16.227 22.9979 15.3789V4.3606L20.1992 5.93173L17.7716 8.20409V16.9164Z" fill="#34A853"/>
<path d="M5.22844 8.20399L4.8535 4.79985L5.22844 1.54175L11.5 6.15412L17.7716 1.54175L18.191 4.62394L17.7716 8.20399L11.5 12.8164L5.22844 8.20399Z" fill="#EA4335"/>
<path d="M17.7716 1.54178V8.20401L22.9979 4.36043V2.31048C22.9979 0.409206 20.7846 -0.674654 19.235 0.465579L17.7716 1.54178Z" fill="#FBBC04"/>
<path d="M0.00244141 4.36047L2.40613 6.12829L5.22878 8.20405V1.54182L3.76531 0.465619C2.21309 -0.674702 0.00244141 0.409246 0.00244141 2.31043V4.36038V4.36047Z" fill="#C5221F"/>
</g>
<defs>
<clipPath id="clip0_0_347">
<rect width="23" height="17" fill="white"/>
</clipPath>
</defs>
</svg>
