<svg width="60" height="37" viewBox="0 0 60 37" fill="none" xmlns="http://www.w3.org/2000/svg">
<path d="M60 1.08822V18.4997C60 18.7883 59.8829 19.0651 59.6746 19.2692C59.4662 19.4733 59.1836 19.5879 58.8889 19.5879C58.5942 19.5879 58.3116 19.4733 58.1032 19.2692C57.8949 19.0651 57.7778 18.7883 57.7778 18.4997V3.71626L33.0086 27.9754C32.9054 28.0765 32.7829 28.1568 32.648 28.2116C32.5131 28.2663 32.3685 28.2945 32.2225 28.2945C32.0765 28.2945 31.9319 28.2663 31.797 28.2116C31.6621 28.1568 31.5396 28.0765 31.4364 27.9754L21.1115 17.8631L1.89782 36.6811C1.68933 36.8853 1.40656 37 1.11172 37C0.816872 37 0.534102 36.8853 0.325614 36.6811C0.117127 36.4769 5.81211e-09 36.2 0 35.9112C-5.81211e-09 35.6224 0.117127 35.3455 0.325614 35.1413L20.3254 15.5533C20.4286 15.4522 20.5511 15.3719 20.686 15.3171C20.8209 15.2624 20.9655 15.2342 21.1115 15.2342C21.2575 15.2342 21.4021 15.2624 21.537 15.3171C21.6719 15.3719 21.7944 15.4522 21.8976 15.5533L32.2225 25.6656L56.2056 2.17643H41.1113C40.8166 2.17643 40.534 2.06178 40.3256 1.8577C40.1173 1.65362 40.0002 1.37683 40.0002 1.08822C40.0002 0.799604 40.1173 0.522812 40.3256 0.318732C40.534 0.114651 40.8166 0 41.1113 0H58.8889C59.1836 0 59.4662 0.114651 59.6746 0.318732C59.8829 0.522812 60 0.799604 60 1.08822Z" fill="#E91717"/>
</svg>
