<svg width="31" height="30" viewBox="0 0 31 30" fill="none" xmlns="http://www.w3.org/2000/svg">
<path d="M26.6066 3.60299C25.8769 2.9323 22.9282 0.799965 16.3601 0.770995C16.3601 0.770995 8.61458 0.305726 4.83877 3.75574C2.73693 5.84989 1.99754 8.91409 1.91955 12.7131C1.84156 16.512 1.74065 23.6315 8.63 25.562H8.63661L8.6322 28.5076C8.6322 28.5076 8.58814 29.7002 9.37644 29.9434C10.33 30.2384 10.8896 29.332 11.7999 28.3549C12.2996 27.8185 12.9897 27.0306 13.5096 26.4284C18.2213 26.8234 21.8451 25.9206 22.2567 25.7871C23.208 25.4799 28.5913 24.7929 29.4668 17.6739C30.3706 10.3362 29.0297 5.69495 26.6066 3.60299Z" fill="white"/>
<path d="M25.0745 5.08537C24.4577 4.52704 21.7949 2.86041 16.2389 2.83627C16.2389 2.83627 9.65977 2.40568 6.46604 5.28728C4.68851 7.03555 4.08968 9.63535 4.02403 12.808C3.95837 15.9806 3.6182 22.0414 9.44386 23.6536C9.44386 23.6536 9.42094 28.1531 9.4183 28.5486C9.4183 28.8251 9.46236 29.0143 9.62099 29.0533C9.73512 29.081 9.90608 29.0222 10.0515 28.8778C10.983 27.9459 13.9652 24.362 13.9652 24.362C17.9666 24.6223 21.1502 23.8353 21.4926 23.7238C22.2999 23.4653 26.6661 23.0917 27.4051 17.1459C28.1687 11.0171 27.1244 6.83364 25.0745 5.08537Z" fill="#7360F2"/>
<path fill-rule="evenodd" clip-rule="evenodd" d="M16.473 10.2414C16.4837 10.0373 16.6584 9.88049 16.8633 9.89114C17.6298 9.93097 18.2675 10.1621 18.7217 10.6299C19.1741 11.0959 19.3959 11.7469 19.4349 12.5287C19.445 12.7328 19.2872 12.9065 19.0823 12.9166C18.8774 12.9268 18.703 12.7695 18.6929 12.5654C18.6595 11.8961 18.4752 11.4405 18.1877 11.1444C17.9019 10.85 17.4658 10.6635 16.8246 10.6302C16.6197 10.6195 16.4623 10.4455 16.473 10.2414Z" fill="white"/>
<path fill-rule="evenodd" clip-rule="evenodd" d="M15.9099 8.24781C15.9249 8.044 16.1029 7.89087 16.3075 7.90579C17.8674 8.01951 19.1229 8.55044 20.0375 9.5449L20.0376 9.54504C20.9422 10.5297 21.3722 11.7546 21.341 13.1914C21.3365 13.3957 21.1667 13.5578 20.9616 13.5533C20.7565 13.5489 20.5938 13.3797 20.5982 13.1754C20.6258 11.9084 20.2517 10.8742 19.4896 10.0447C18.7297 9.21851 17.6676 8.74696 16.2532 8.64386C16.0486 8.62894 15.8949 8.45163 15.9099 8.24781Z" fill="white"/>
<path fill-rule="evenodd" clip-rule="evenodd" d="M15.2541 6.35255C15.2555 6.1482 15.423 5.98369 15.6281 5.98512C17.7838 6.00007 19.606 6.71495 21.0689 8.1356C22.5441 9.56814 23.2737 11.5184 23.2922 13.9406C23.2937 14.1449 23.1287 14.3119 22.9235 14.3134C22.7184 14.315 22.5508 14.1506 22.5493 13.9462C22.5319 11.6765 21.8541 9.93154 20.5503 8.66551C19.2344 7.38761 17.6004 6.73886 15.623 6.72514C15.4178 6.72372 15.2527 6.5569 15.2541 6.35255Z" fill="white"/>
<path d="M16.9175 17.5033C16.9175 17.5033 17.4396 17.5472 17.7208 17.2022L18.2689 16.5153C18.5333 16.1747 19.1713 15.9574 19.7961 16.3041C20.2644 16.5702 20.7189 16.8593 21.1582 17.1706C21.5728 17.4743 22.4219 18.1802 22.4245 18.1802C22.829 18.5203 22.9225 19.0198 22.6471 19.5465C22.6471 19.5496 22.6449 19.5549 22.6449 19.5575C22.3415 20.0813 21.9565 20.5537 21.5041 20.9568C21.4988 20.9595 21.4988 20.9621 21.4939 20.9647C21.1009 21.2919 20.7147 21.4779 20.3355 21.5226C20.2797 21.5324 20.2229 21.5359 20.1663 21.5332C19.9991 21.5348 19.8327 21.5093 19.6737 21.4577L19.6613 21.4397C19.077 21.2755 18.1015 20.8647 16.4768 19.9719C15.5367 19.4613 14.6416 18.8724 13.8013 18.2113C13.3801 17.8802 12.9783 17.5252 12.5979 17.1482L12.5574 17.1078L12.5168 17.0675L12.4763 17.0271C12.4626 17.0139 12.4494 17.0003 12.4358 16.9867C12.0573 16.6078 11.701 16.2075 11.3685 15.788C10.705 14.9509 10.1138 14.0595 9.60115 13.1232C8.70489 11.5044 8.29246 10.5335 8.12766 9.95059L8.10959 9.9383C8.05793 9.77987 8.03249 9.61413 8.03424 9.44757C8.03116 9.39119 8.03456 9.33463 8.04438 9.27902C8.09167 8.90183 8.27865 8.51689 8.60531 8.12419C8.60795 8.11936 8.6106 8.11936 8.61324 8.11409C9.01788 7.66344 9.49208 7.27997 10.018 6.97813C10.0206 6.97813 10.0259 6.9755 10.029 6.9755C10.5578 6.70116 11.0592 6.79422 11.4003 7.19496C11.4029 7.1976 12.1101 8.04342 12.4137 8.45646C12.7262 8.8944 13.0165 9.34765 13.2835 9.81452C13.6316 10.4365 13.4135 11.0734 13.0716 11.3359L12.382 11.8819C12.0339 12.1619 12.0797 12.6821 12.0797 12.6821C12.0797 12.6821 13.1011 16.5328 16.9175 17.5033Z" fill="white"/>
</svg>
