<svg width="31" height="21" viewBox="0 0 31 21" fill="none" xmlns="http://www.w3.org/2000/svg">
<g clip-path="url(#clip0_0_336)">
<path d="M29.8347 3.27542C29.6627 2.64233 29.3271 2.06517 28.8614 1.6014C28.3957 1.13763 27.816 0.803438 27.1803 0.6321C24.8527 0 15.4849 0 15.4849 0C15.4849 0 6.11664 0.0191333 3.78905 0.651233C3.15326 0.822582 2.57364 1.15679 2.10791 1.62058C1.64218 2.08437 1.30659 2.66156 1.13457 3.29467C0.430526 7.41277 0.157416 13.6878 1.1539 17.6412C1.32594 18.2743 1.66154 18.8514 2.12726 19.3152C2.59299 19.779 3.1726 20.1131 3.80838 20.2845C6.13597 20.9166 15.504 20.9166 15.504 20.9166C15.504 20.9166 24.8719 20.9166 27.1994 20.2845C27.8352 20.1132 28.4148 19.779 28.8806 19.3152C29.3463 18.8514 29.6819 18.2743 29.854 17.6412C30.5965 13.5172 30.8254 7.24605 29.8347 3.27542Z" fill="#FF0000"/>
<path d="M12.5031 14.9403L20.2743 10.4582L12.5031 5.97607V14.9403Z" fill="white"/>
</g>
<defs>
<clipPath id="clip0_0_336">
<rect width="30" height="21" fill="white" transform="translate(0.5)"/>
</clipPath>
</defs>
</svg>
